<?xml version="1.0" encoding="UTF-8" standalone="no"?>
<!DOCTYPE svg PUBLIC "-//W3C//DTD SVG 1.1//EN" "http://www.w3.org/Graphics/SVG/1.1/DTD/svg11.dtd">
<svg width="100%" height="100%" viewBox="0 0 1200 630" version="1.1" xmlns="http://www.w3.org/2000/svg" xmlns:xlink="http://www.w3.org/1999/xlink" xml:space="preserve" xmlns:serif="http://www.serif.com/" style="fill-rule:evenodd;clip-rule:evenodd;stroke-linejoin:round;stroke-miterlimit:2;">
    <g transform="matrix(37.5,0,0,19.6875,0,0)">
        <path d="M32,3.159L32,28.841C32,30.584 31.257,32 30.341,32L1.659,32C0.743,32 0,30.584 0,28.841L0,3.159C0,1.416 0.743,0 1.659,0L30.341,0C31.257,0 32,1.416 32,3.159Z" style="fill:rgb(29,78,216);"/>
    </g>
    <g transform="matrix(18.951,0,0,18.951,296.783,13.2045)">
        <g transform="matrix(0.0282408,0,0,0.0282408,-12.2408,-7.40366)">
            <rect x="1232.08" y="811.56" width="44.2" height="238.38" style="fill:white;fill-rule:nonzero;"/>
        </g>
        <g transform="matrix(0.0282408,0,0,0.0282408,-12.2408,-7.40366)">
            <rect x="723.719" y="811.56" width="44.205" height="238.38" style="fill:white;fill-rule:nonzero;"/>
        </g>
        <g transform="matrix(0.0282408,0,0,0.0282408,-12.2408,-7.40366)">
            <path d="M1431,932.189L1408.9,932.189L1408.9,867.697C1416.18,870.581 1423.55,873.147 1431,875.396L1431,932.189ZM1386.79,932.189L1364.69,932.189L1364.69,845.478C1371.86,849.913 1379.23,854.024 1386.79,857.804L1386.79,932.189ZM1342.59,932.189L1320.49,932.189L1320.49,811.56C1327.56,818.202 1334.93,824.442 1342.59,830.272L1342.59,932.189ZM1298.38,932.189L1276.28,932.189L1276.28,758.522C1282.96,768.922 1290.34,778.864 1298.38,788.333L1298.38,932.189ZM1497.31,886.882L1497.31,842.601C1374.16,835.074 1276.28,732.502 1276.28,607.497L1232.08,607.497L1232.08,976.394L1497.31,976.394L1497.31,932.189L1453.1,932.189L1453.1,881.075C1467.59,884.173 1482.35,886.122 1497.31,886.882Z" style="fill:white;fill-rule:nonzero;"/>
        </g>
        <g transform="matrix(0.0282408,0,0,0.0282408,-12.2408,-7.40366)">
            <path d="M679.514,932.189L657.412,932.189L657.412,830.272C665.067,824.442 672.44,818.202 679.514,811.56L679.514,932.189ZM635.309,932.189L613.207,932.189L613.207,857.804C620.773,854.024 628.144,849.913 635.309,845.478L635.309,932.189ZM591.104,932.189L569.001,932.189L569.001,875.396C576.454,873.147 583.825,870.581 591.104,867.697L591.104,932.189ZM701.617,976.394L701.617,707.059C665.974,783.165 590.806,837.215 502.694,842.601L502.694,886.882C517.651,886.122 532.405,884.173 546.899,881.075L546.899,932.189L502.694,932.189L502.694,976.394L701.617,976.394Z" style="fill:white;fill-rule:nonzero;"/>
        </g>
        <g transform="matrix(0.0282408,0,0,0.0282408,-12.2408,-7.40366)">
            <path d="M1188.19,932.189L1166.08,932.189L1166.08,835.179C1173.72,829.711 1181.09,823.84 1188.19,817.591L1188.19,932.189ZM1143.98,932.189L1121.56,932.189L1121.56,861.154C1129.23,857.584 1136.71,853.687 1143.98,849.461L1143.98,932.189ZM1099.46,932.189L1077.36,932.189L1077.36,877.396C1084.81,875.358 1092.18,873.011 1099.46,870.346L1099.46,932.189ZM1055.26,932.189L1032.84,932.189L1032.84,885.733C1040.37,884.95 1047.85,883.867 1055.26,882.481L1055.26,932.189ZM1010.74,932.189L989.404,932.189L989.404,886.907C994.075,887.136 998.766,887.252 1003.47,887.252C1005.9,887.252 1008.32,887.22 1010.74,887.159L1010.74,932.189ZM967.302,932.189L944.744,932.189L944.744,881.09C952.196,882.682 959.719,883.965 967.302,884.942L967.302,932.189ZM922.641,932.189L900.539,932.189L900.539,867.698C907.818,870.582 915.189,873.148 922.641,875.397L922.641,932.189ZM878.437,932.189L856.334,932.189L856.334,845.478C863.499,849.913 870.87,854.024 878.437,857.804L878.437,932.189ZM834.231,932.189L812.129,932.189L812.129,811.56C819.203,818.202 826.575,824.442 834.231,830.272L834.231,932.189ZM790.026,788.333L790.026,932.189L767.924,932.189L767.924,758.522C774.601,768.922 781.985,778.864 790.026,788.333ZM1003.47,843.047C873.591,843.047 767.924,737.38 767.924,607.497L723.719,607.497L723.719,976.394L1210.29,976.394L1210.29,709.218C1174.28,788.315 1096.95,843.047 1003.47,843.047Z" style="fill:white;fill-rule:nonzero;"/>
        </g>
    </g>
    <g transform="matrix(18.6255,0,0,18.6255,-4987.64,-5306.22)">
        <g transform="matrix(0.799182,0,0,0.799182,282.743,289.866)">
            <path d="M19.713,9.128L19.467,9.694C19.286,10.108 18.714,10.108 18.533,9.694L18.287,9.128C17.847,8.119 17.056,7.316 16.068,6.877L15.308,6.539C14.897,6.357 14.897,5.759 15.308,5.576L16.025,5.257C17.038,4.807 17.844,3.974 18.276,2.931L18.529,2.32C18.706,1.893 19.294,1.893 19.471,2.32L19.724,2.931C20.156,3.974 20.962,4.807 21.975,5.257L22.692,5.576C23.103,5.759 23.103,6.357 22.692,6.539L21.932,6.877C20.945,7.316 20.153,8.119 19.713,9.128Z" style="fill:white;fill-rule:nonzero;"/>
        </g>
        <g transform="matrix(0.518111,0,0,0.518111,293.353,288.354)">
            <path d="M19.713,9.128L19.467,9.694C19.286,10.108 18.714,10.108 18.533,9.694L18.287,9.128C17.847,8.119 17.056,7.316 16.068,6.877L15.308,6.539C14.897,6.357 14.897,5.759 15.308,5.576L16.025,5.257C17.038,4.807 17.844,3.974 18.276,2.931L18.529,2.32C18.706,1.893 19.294,1.893 19.471,2.32L19.724,2.931C20.156,3.974 20.962,4.807 21.975,5.257L22.692,5.576C23.103,5.759 23.103,6.357 22.692,6.539L21.932,6.877C20.945,7.316 20.153,8.119 19.713,9.128Z" style="fill:white;fill-rule:nonzero;"/>
        </g>
        <g transform="matrix(0.286621,0,0,0.286621,294.532,287.259)">
            <path d="M19.713,9.128L19.467,9.694C19.286,10.108 18.714,10.108 18.533,9.694L18.287,9.128C17.847,8.119 17.056,7.316 16.068,6.877L15.308,6.539C14.897,6.357 14.897,5.759 15.308,5.576L16.025,5.257C17.038,4.807 17.844,3.974 18.276,2.931L18.529,2.32C18.706,1.893 19.294,1.893 19.471,2.32L19.724,2.931C20.156,3.974 20.962,4.807 21.975,5.257L22.692,5.576C23.103,5.759 23.103,6.357 22.692,6.539L21.932,6.877C20.945,7.316 20.153,8.119 19.713,9.128Z" style="fill:white;fill-rule:nonzero;"/>
        </g>
    </g>
    <g transform="matrix(4.14976,0,0,4.14976,-2074.75,-1771.62)">
        <g transform="matrix(24,0,0,24,722.222,561.671)">
        </g>
        <text x="566.878px" y="561.671px" style="font-family:'DINAlternate-Bold', 'DIN Alternate', sans-serif;font-weight:700;font-size:24px;fill:white;">Infr<tspan x="601.53px 613.53px " y="561.671px 561.671px ">a </tspan>Advisor AI</text>
    </g>
</svg>
